<svg id="svg" version="1.1" xmlns="http://www.w3.org/2000/svg" xmlns:xlink="http://www.w3.org/1999/xlink" width="400" height="400" viewBox="0, 0, 400,400"><g id="svgg"><path id="path0" d="M206.869 159.007 C 195.596 161.596,189.415 171.387,192.217 182.216 C 194.062 189.348,197.533 192.591,209.800 198.644 C 220.638 203.991,223.051 206.031,224.012 210.656 C 226.683 223.525,211.533 229.059,195.808 220.958 C 191.166 218.567,190.603 218.561,189.974 220.895 C 188.533 226.249,191.291 229.307,199.811 231.803 C 220.222 237.783,238.015 224.777,233.811 206.951 C 232.223 200.220,228.581 196.870,216.200 190.758 C 204.094 184.782,201.550 182.267,201.550 176.278 C 201.550 166.681,212.541 163.403,224.503 169.434 C 228.628 171.514,229.460 171.614,230.044 170.100 C 230.709 168.379,230.310 164.206,229.382 163.179 C 226.140 159.589,214.073 157.353,206.869 159.007 M16.000 160.000 C 15.116 160.884,14.733 225.304,15.590 229.000 C 16.313 232.119,15.545 232.000,34.865 232.000 L 52.041 232.000 52.665 230.506 C 53.508 228.489,53.145 225.265,51.966 224.300 C 51.191 223.665,49.902 223.600,38.163 223.600 L 25.214 223.600 25.107 191.968 C 24.983 155.293,25.577 159.200,20.124 159.200 C 17.333 159.200,16.672 159.328,16.000 160.000 M334.400 171.967 L 333.400 172.235 333.200 180.618 L 333.000 189.000 330.800 190.110 C 327.504 191.772,324.313 193.804,321.854 195.808 C 319.147 198.013,319.276 198.016,317.309 195.683 C 308.752 185.535,291.424 190.666,287.778 204.429 C 283.814 219.386,291.680 232.770,304.458 232.806 C 307.306 232.814,307.366 232.876,308.377 236.791 C 317.137 270.714,362.104 278.625,381.377 249.634 C 401.290 219.681,376.734 182.271,340.300 187.055 L 338.400 187.304 338.400 180.328 C 338.400 172.051,337.910 171.028,334.400 171.967 M173.680 172.480 C 173.329 172.831,173.200 176.004,173.200 184.256 C 173.200 196.819,173.249 196.631,170.541 194.388 C 162.700 187.893,151.509 189.999,147.000 198.817 C 143.947 204.786,143.382 214.863,145.689 222.187 C 149.172 233.247,161.287 236.289,170.564 228.433 C 173.356 226.069,173.600 226.126,173.600 229.144 C 173.600 231.818,174.029 232.400,176.000 232.400 C 176.792 232.400,177.656 232.184,177.920 231.920 C 178.744 231.096,178.599 173.457,177.771 172.629 C 177.031 171.888,174.369 171.791,173.680 172.480 M74.200 190.665 C 64.246 192.210,58.712 199.765,58.719 211.800 C 58.727 226.156,65.672 233.327,78.956 232.695 C 86.687 232.327,91.600 230.334,91.600 227.565 C 91.600 225.368,91.044 225.285,86.489 226.800 C 73.479 231.128,64.536 226.222,64.249 214.600 L 64.200 212.600 78.133 212.400 C 94.627 212.163,93.399 212.591,93.070 207.200 C 92.387 196.008,84.470 189.070,74.200 190.665 M115.000 190.784 C 107.916 191.922,103.786 194.699,104.564 197.800 C 104.898 199.131,105.347 199.075,109.262 197.208 C 119.581 192.286,126.935 195.141,127.506 204.291 C 127.786 208.775,127.754 208.800,121.578 208.800 C 111.934 208.800,106.207 211.300,103.746 216.585 C 97.911 229.115,115.111 238.483,126.152 228.789 C 127.915 227.240,128.384 227.547,128.394 230.257 C 128.400 232.037,128.800 232.400,130.753 232.400 C 132.809 232.400,132.800 232.465,132.800 217.193 C 132.800 199.181,132.268 196.225,128.511 193.360 C 125.686 191.204,119.602 190.044,115.000 190.784 M257.486 190.797 C 248.185 192.452,243.015 200.112,243.042 212.200 C 243.079 228.390,253.202 235.919,269.406 231.809 C 274.869 230.423,276.472 229.133,275.843 226.629 C 275.514 225.318,275.066 225.335,270.742 226.820 C 258.204 231.125,248.883 226.305,248.658 215.400 L 248.600 212.600 262.166 212.495 C 276.525 212.383,276.522 212.383,277.262 210.438 C 277.781 209.073,276.997 202.929,275.972 200.329 C 273.172 193.225,265.648 189.345,257.486 190.797 M353.944 191.659 C 354.875 192.009,340.548 207.527,338.923 207.929 C 338.506 208.033,338.400 206.473,338.400 200.219 L 338.400 192.380 339.473 191.972 C 342.266 190.911,351.425 190.712,353.944 191.659 M365.093 195.443 C 389.263 208.900,389.870 243.854,366.177 257.910 C 346.061 269.844,320.011 259.715,313.207 237.314 C 311.855 232.862,312.003 232.510,315.785 231.178 C 319.086 230.016,320.000 229.274,320.000 227.756 C 320.000 225.296,319.508 225.180,315.342 226.659 C 313.152 227.437,312.240 227.600,311.913 227.273 C 310.802 226.162,313.568 213.205,315.037 212.641 C 315.383 212.508,316.628 212.400,317.804 212.400 C 321.128 212.400,321.748 211.375,321.381 206.481 C 321.037 201.891,322.746 199.760,330.088 195.626 C 333.394 193.764,333.200 192.669,333.200 213.144 C 333.200 233.178,333.101 232.400,335.651 232.400 C 338.400 232.400,338.400 232.400,338.400 220.571 C 338.400 214.757,338.554 210.000,338.741 210.000 C 338.929 210.000,343.095 214.868,347.999 220.817 C 357.565 232.422,357.542 232.400,359.941 232.400 C 364.253 232.400,364.026 231.927,354.000 219.982 C 349.160 214.216,345.200 209.180,345.200 208.792 C 345.200 208.392,348.546 204.933,352.900 200.830 C 361.579 192.652,360.743 193.022,365.093 195.443 M81.653 196.066 C 84.828 197.423,86.835 200.277,87.626 204.560 C 88.309 208.253,89.160 208.000,76.036 208.000 C 63.182 208.000,63.846 208.164,64.548 205.170 C 66.516 196.779,74.001 192.795,81.653 196.066 M165.520 196.244 C 166.687 196.813,168.892 198.512,170.420 200.020 L 173.200 202.761 173.200 211.561 L 173.200 220.361 170.405 223.195 C 160.488 233.251,150.533 228.626,149.718 213.583 C 148.958 199.569,156.155 191.672,165.520 196.244 M265.804 195.969 C 269.295 197.495,271.447 200.835,271.872 205.389 L 272.116 208.000 260.212 208.000 L 248.309 208.000 248.584 206.100 C 249.821 197.531,258.157 192.627,265.804 195.969 M310.329 196.267 C 312.480 197.298,314.588 199.614,315.050 201.455 C 315.209 202.089,314.758 203.199,313.538 205.176 L 311.800 207.993 302.287 207.997 C 291.312 208.001,291.883 208.246,293.149 204.076 C 295.525 196.256,303.110 192.808,310.329 196.267 M309.340 212.703 C 309.443 212.869,309.091 214.624,308.558 216.603 C 308.025 218.581,307.456 222.000,307.294 224.200 L 307.000 228.200 305.459 228.327 C 301.217 228.675,296.057 225.706,294.270 221.889 C 292.791 218.730,291.875 213.459,292.667 212.667 C 293.038 212.295,309.110 212.330,309.340 212.703 M127.514 217.560 L 127.627 222.121 125.631 224.045 C 117.725 231.665,106.313 228.572,108.372 219.367 C 109.415 214.707,113.645 212.793,122.600 212.928 L 127.400 213.000 127.514 217.560 M305.612 246.733 L 304.255 247.866 308.827 254.333 C 313.772 261.327,314.005 261.499,316.065 259.658 L 317.343 258.516 315.546 255.958 C 307.490 244.490,307.873 244.846,305.612 246.733 M290.969 262.118 C 260.044 283.633,252.594 288.877,252.471 289.218 C 252.258 289.807,256.022 294.800,256.680 294.800 C 257.015 294.800,266.764 288.192,278.345 280.116 C 289.925 272.040,301.695 263.838,304.500 261.889 C 307.305 259.940,309.600 258.156,309.600 257.924 C 309.600 257.205,305.989 252.400,305.449 252.400 C 305.168 252.400,298.653 256.773,290.969 262.118 M246.300 287.878 C 245.475 288.445,244.800 289.078,244.800 289.285 C 244.800 289.742,253.448 301.859,254.032 302.220 C 254.638 302.594,257.704 300.449,257.463 299.819 C 257.112 298.906,248.368 286.799,248.077 286.824 C 247.925 286.837,247.125 287.312,246.300 287.878 " stroke="none" fill="#096f31" fill-rule="evenodd"></path><path id="path1" d="M0.000 200.000 L 0.000 400.000 200.000 400.000 L 400.000 400.000 400.000 200.000 L 400.000 0.000 200.000 0.000 L 0.000 0.000 0.000 200.000 M221.775 159.412 C 227.834 161.076,230.098 162.961,230.317 166.523 C 230.631 171.641,229.753 172.081,224.503 169.434 C 212.541 163.403,201.550 166.681,201.550 176.278 C 201.550 182.267,204.094 184.782,216.200 190.758 C 228.581 196.870,232.223 200.220,233.811 206.951 C 238.015 224.777,220.222 237.783,199.811 231.803 C 191.291 229.307,188.533 226.249,189.974 220.895 C 190.603 218.561,191.166 218.567,195.808 220.958 C 211.533 229.059,226.683 223.525,224.012 210.656 C 223.051 206.031,220.638 203.991,209.800 198.644 C 197.533 192.591,194.062 189.348,192.217 182.216 C 188.112 166.348,203.581 154.413,221.775 159.412 M24.224 159.768 C 24.979 160.320,25.003 161.182,25.107 191.968 L 25.214 223.600 38.163 223.600 C 49.902 223.600,51.191 223.665,51.966 224.300 C 53.145 225.265,53.508 228.489,52.665 230.506 L 52.041 232.000 34.865 232.000 C 15.545 232.000,16.313 232.119,15.590 229.000 C 14.733 225.304,15.116 160.884,16.000 160.000 C 17.010 158.990,22.931 158.823,24.224 159.768 M337.900 172.724 C 338.257 173.173,338.400 175.350,338.400 180.328 L 338.400 187.304 340.300 187.055 C 376.734 182.271,401.290 219.681,381.377 249.634 C 362.104 278.625,317.137 270.714,308.377 236.791 C 307.366 232.876,307.306 232.814,304.458 232.806 C 291.680 232.770,283.814 219.386,287.778 204.429 C 291.424 190.666,308.752 185.535,317.309 195.683 C 319.276 198.016,319.147 198.013,321.854 195.808 C 324.313 193.804,327.504 191.772,330.800 190.110 L 333.000 189.000 333.200 180.618 L 333.400 172.235 334.400 171.967 C 335.728 171.612,337.282 171.948,337.900 172.724 M177.771 172.629 C 178.599 173.457,178.744 231.096,177.920 231.920 C 176.092 233.748,173.600 232.146,173.600 229.144 C 173.600 226.126,173.356 226.069,170.564 228.433 C 161.287 236.289,149.172 233.247,145.689 222.187 C 143.382 214.863,143.947 204.786,147.000 198.817 C 151.509 189.999,162.700 187.893,170.541 194.388 C 173.249 196.631,173.200 196.819,173.200 184.256 C 173.200 176.004,173.329 172.831,173.680 172.480 C 174.369 171.791,177.031 171.888,177.771 172.629 M83.025 191.644 C 89.140 193.932,92.586 199.269,93.070 207.200 C 93.399 212.591,94.627 212.163,78.133 212.400 L 64.200 212.600 64.249 214.600 C 64.536 226.222,73.479 231.128,86.489 226.800 C 91.044 225.285,91.600 225.368,91.600 227.565 C 91.600 232.495,75.710 234.646,67.952 230.765 C 55.670 224.622,55.330 200.052,67.429 192.962 C 71.802 190.399,78.244 189.855,83.025 191.644 M125.076 191.599 C 131.983 194.006,132.800 196.713,132.800 217.193 C 132.800 232.465,132.809 232.400,130.753 232.400 C 128.800 232.400,128.400 232.037,128.394 230.257 C 128.384 227.547,127.915 227.240,126.152 228.789 C 115.111 238.483,97.911 229.115,103.746 216.585 C 106.207 211.300,111.934 208.800,121.578 208.800 C 127.754 208.800,127.786 208.775,127.506 204.291 C 126.935 195.141,119.581 192.286,109.262 197.208 C 105.347 199.075,104.898 199.131,104.564 197.800 C 103.268 192.633,116.534 188.623,125.076 191.599 M267.400 191.638 C 271.141 193.042,274.404 196.351,275.972 200.329 C 276.997 202.929,277.781 209.073,277.262 210.438 C 276.522 212.383,276.525 212.383,262.166 212.495 L 248.600 212.600 248.658 215.400 C 248.883 226.305,258.204 231.125,270.742 226.820 C 275.066 225.335,275.514 225.318,275.843 226.629 C 277.296 232.418,259.296 235.083,251.117 230.290 C 241.451 224.625,239.876 204.351,248.422 195.578 C 252.944 190.935,261.048 189.252,267.400 191.638 M343.373 191.220 C 341.819 191.409,340.064 191.748,339.473 191.972 L 338.400 192.380 338.400 200.219 C 338.400 206.473,338.506 208.033,338.923 207.929 C 340.548 207.527,354.875 192.009,353.944 191.659 C 352.440 191.094,346.456 190.845,343.373 191.220 M352.900 200.830 C 348.546 204.933,345.200 208.392,345.200 208.792 C 345.200 209.180,349.160 214.216,354.000 219.982 C 364.026 231.927,364.253 232.400,359.941 232.400 C 357.542 232.400,357.565 232.422,347.999 220.817 C 343.095 214.868,338.929 210.000,338.741 210.000 C 338.554 210.000,338.400 214.757,338.400 220.571 C 338.400 232.400,338.400 232.400,335.651 232.400 C 333.101 232.400,333.200 233.178,333.200 213.144 C 333.200 192.669,333.394 193.764,330.088 195.626 C 322.746 199.760,321.037 201.891,321.381 206.481 C 321.748 211.375,321.128 212.400,317.804 212.400 C 316.628 212.400,315.383 212.508,315.037 212.641 C 313.568 213.205,310.802 226.162,311.913 227.273 C 312.240 227.600,313.152 227.437,315.342 226.659 C 319.508 225.180,320.000 225.296,320.000 227.756 C 320.000 229.274,319.086 230.016,315.785 231.178 C 312.003 232.510,311.855 232.862,313.207 237.314 C 320.011 259.715,346.061 269.844,366.177 257.910 C 389.870 243.854,389.263 208.900,365.093 195.443 C 360.743 193.022,361.579 192.652,352.900 200.830 M74.000 195.156 C 69.151 196.186,65.830 199.704,64.548 205.170 C 63.846 208.164,63.182 208.000,76.036 208.000 C 89.160 208.000,88.309 208.253,87.626 204.560 C 86.358 197.696,80.636 193.747,74.000 195.156 M158.600 195.154 C 152.420 196.762,149.171 203.504,149.718 213.583 C 150.533 228.626,160.488 233.251,170.405 223.195 L 173.200 220.361 173.200 211.561 L 173.200 202.761 170.420 200.020 C 166.343 195.999,162.086 194.247,158.600 195.154 M258.059 195.213 C 253.222 196.210,249.373 200.633,248.584 206.100 L 248.309 208.000 260.212 208.000 L 272.116 208.000 271.872 205.389 C 271.181 197.992,265.365 193.707,258.059 195.213 M302.059 195.213 C 297.879 196.075,294.584 199.353,293.149 204.076 C 291.883 208.246,291.312 208.001,302.287 207.997 L 311.800 207.993 313.538 205.176 C 315.492 202.009,315.500 201.487,313.641 198.919 C 311.507 195.974,306.359 194.327,302.059 195.213 M292.667 212.667 C 291.875 213.459,292.791 218.730,294.270 221.889 C 296.057 225.706,301.217 228.675,305.459 228.327 L 307.000 228.200 307.294 224.200 C 307.456 222.000,308.025 218.581,308.558 216.603 C 309.091 214.624,309.443 212.869,309.340 212.703 C 309.110 212.330,293.038 212.295,292.667 212.667 M115.600 213.346 C 111.416 214.280,109.074 216.231,108.372 219.367 C 106.313 228.572,117.725 231.665,125.631 224.045 L 127.627 222.121 127.514 217.560 L 127.400 213.000 122.600 212.928 C 119.960 212.888,116.810 213.076,115.600 213.346 M310.975 249.510 C 312.501 251.650,314.558 254.551,315.546 255.958 L 317.343 258.516 316.065 259.658 C 314.005 261.499,313.772 261.327,308.827 254.333 L 304.255 247.866 305.612 246.733 C 307.601 245.073,307.931 245.244,310.975 249.510 M307.780 254.951 C 310.147 258.268,310.360 257.818,304.500 261.889 C 301.695 263.838,289.925 272.040,278.345 280.116 C 266.764 288.192,257.015 294.800,256.680 294.800 C 256.022 294.800,252.258 289.807,252.471 289.218 C 252.704 288.575,304.757 252.400,305.449 252.400 C 305.730 252.400,306.779 253.548,307.780 254.951 M252.807 293.046 C 255.257 296.481,257.351 299.529,257.463 299.819 C 257.704 300.449,254.638 302.594,254.032 302.220 C 253.448 301.859,244.800 289.742,244.800 289.285 C 244.800 288.918,247.525 286.872,248.077 286.824 C 248.230 286.811,250.358 289.611,252.807 293.046 " stroke="none" fill="#fbfbfb" fill-rule="evenodd"></path></g></svg>