<?xml version="1.0" encoding="utf-8" standalone="yes"?><!-- Generator: Adobe Illustrator 26.5.0, SVG Export Plug-In . SVG Version: 6.00 Build 0)  --><svg xmlns:svg="http://www.w3.org/2000/svg" xmlns:inkscape="http://www.inkscape.org/namespaces/inkscape" xmlns:sodipodi="http://sodipodi.sourceforge.net/DTD/sodipodi-0.dtd" xmlns="http://www.w3.org/2000/svg" xmlns:xlink="http://www.w3.org/1999/xlink" version="1.2" baseProfile="tiny-ps" viewBox="0 0 400 400" xml:space="preserve"><title>leadseek9.svg</title><g id="svgg"><path id="path0" fill-rule="evenodd" fill="#0B6E38" d="M211.4,148.2c-1.5,0.1-3,0.3-3.2,0.4c-0.3,0.1-0.7,0.2-0.9,0.2   c-0.6,0-2.2,0.6-3.8,1.3c-0.6,0.3-1.2,0.5-1.2,0.5c0,0-0.8,0.5-1.6,1c-9.3,6.1-10.3,19.7-2,27.9c2,2,7.5,5.3,11.4,7   c12.5,5.3,16.8,10.6,14.6,18c-2.9,9.7-16.8,11.4-29.6,3.6c-2.9-1.8-3.7-1.2-3.7,2.9c0,3.8,2,5.8,7.9,7.7c0.8,0.2,1.6,0.5,1.8,0.6   c0.2,0.1,1.2,0.3,2.2,0.5c1,0.2,2.3,0.4,3,0.5c12.1,2.1,24.9-4.7,27.4-14.5c2.5-9.9-1.2-18-10.7-23.1c-2.3-1.2-7.1-3.7-7.3-3.7   c-1.2,0-8.6-4.5-10.4-6.3c-5.7-5.7-3.1-15.4,4.5-16.9c5.6-1.2,9.6-0.4,16.1,2.9c4.1,2.1,4.5,2,4.5-2.3c0-2.6-0.2-3.4-1.2-4.3   c-0.7-0.6-4.1-2.3-4.6-2.3c-0.2,0-0.4-0.1-0.4-0.2c-0.1-0.2-1.4-0.5-4.3-1.1C217.5,148.1,214.4,147.9,211.4,148.2 M23.2,148.8   c-1.3,0.2-2,0.5-2.1,1.1c-0.4,1.5,0,67.6,0.4,68.2c0.9,1.6-0.1,1.5,18.3,1.5h16.5l0.4-0.6c0.8-1.3,0.8-5.4,0-6.4l-0.4-0.5L43.4,212   c-10.5-0.1-13-0.2-13.2-0.4c-0.3-0.3-0.3-2.7-0.3-30.9c0-16.8-0.1-30.8-0.1-30.9C29.4,149,26.1,148.5,23.2,148.8 M332.2,161.2   c-0.9,0.2-0.9,0-0.9,8.3c0,4.3-0.1,7.9-0.1,8.1c-0.1,0.2-1.2,0.8-2.5,1.5c-3.7,1.8-7.1,4.1-9.3,6.1c-2.1,1.9-2,1.9-3.1,0.4   c-5.9-8.6-20.9-8-26.7,1.1c-1.3,2-2.2,4.1-2.8,6.5c-1,4-0.7,13.4,0.6,16.2c1.8,4,2.3,4.9,4.2,6.6c1.3,1.2,4.2,3,5.4,3.3   c0.3,0.1,1.1,0.3,1.7,0.5c0.7,0.2,2.2,0.4,4,0.4c3.5,0.1,3.5,0.1,3.8,1.6c4.2,22.1,26.5,36.9,47.5,31.5   c18.3-4.7,30.2-19.2,30.6-37.5c0.5-20.4-13.4-36.5-34.5-40c-2.6-0.4-11.1,0-13,0.6c-1.4,0.5-1.3,0.6-1.3-7.4c0-5.8-0.1-7.2-0.3-7.4   C335.1,161.2,333.1,161.1,332.2,161.2 M175.6,161.7l-0.5,0.4v11.4c0,13,0.1,12.3-1.7,10.7c-4-3.5-6.6-4.7-10.6-4.7   c-6.8,0-11.9,3.6-14.3,10.2c-0.6,1.6-0.7,2-1.2,4.6c-0.6,2.9-0.4,10,0.3,13.3c2.7,13.2,16.5,16.9,26.1,7.1c1.7-1.8,1.9-1.6,1.9,1.8   c0,3.2,0.7,3.8,3.6,3.1l0.4-0.1v-28.8v-28.8l-0.4-0.3C178.3,161.1,176.2,161.2,175.6,161.7 M348.7,179.6c2.6,0.3,4,0.6,4,0.9   c0,0.2-2.5,2.7-11.6,11.9l-4.9,5l0.9,1c0.8,0.9,2.1,2.4,3.9,4.7c0.4,0.5,1,1.3,1.5,1.8s1.5,1.8,2.2,2.7c0.8,0.9,1.4,1.7,1.5,1.8   c0.1,0.1,0.5,0.6,0.9,1.1c0.4,0.6,0.9,1.1,1,1.2s1.6,1.9,3.3,3.9c2.2,2.6,3.3,3.8,3.7,3.9c1.1,0.4,3.8,0.3,4.4-0.1   c0.7-0.6,1.4,0.4-11-14.5c-5.7-6.7-6.2-7.5-6.2-7.9c0-0.5,1-1.6,9.7-9.7c6.2-5.9,5.9-5.7,7.7-4.9c0.7,0.3,1.5,0.7,2,0.9   c15,6.9,22.9,27,17,43.2c-9.5,26.5-44.9,31.9-61.7,9.5c-4.1-5.5-8.1-15.9-6.2-16.4c3.2-0.9,4-1.1,5.4-1.8c1.6-0.8,2.1-1.5,1.9-2.8   c-0.2-1.7-0.6-1.8-3-0.8c-3.1,1.3-4.8,1.7-5.1,1.2c-0.7-1,0.6-9,2.1-13.1c0.8-2,0.9-2,3.5-2c3.8,0,4.3-1,3.5-7   c-0.2-1.7-0.2-1.8,0.2-2.4c1.4-2.3,10-8.3,11.5-8.1l0.4,0.1l0.1,18.3c0.1,10,0.2,18.3,0.3,18.4c0.2,0.2,3.7,0.2,3.9,0   c0.1-0.1,0.2-6.1,0.2-19.2c0-10.4,0.1-19.1,0.1-19.3c0.2-0.5,1.7-0.9,6.4-1.5C344.1,179.3,346,179.3,348.7,179.6 M77.1,179.7   c-8.9,1.7-13.9,9.1-13.9,20.3c0,10.6,4.1,17.3,11.9,19.5c3.3,0.9,10.1,0.9,13.8-0.1c4.7-1.3,6.1-2.2,6.1-3.9c0-2-0.5-2.2-2.9-1.2   c-9.2,3.9-18.5,2.4-21.9-3.6c-1.6-3-2.8-9.8-1.8-10.2c0.2-0.1,6.2-0.1,13.3-0.1h13l0.7-0.5c1.4-1,1.4-6.5,0-10.3   C92.4,181.9,85.3,178.1,77.1,179.7 M117.3,179.8c-5.9,1.2-9.5,3.4-9.5,5.6c0,1.9,0.7,2,3.3,0.6c3.9-2.1,6.1-2.7,9.7-2.7   c7.1,0,9.9,3.2,9.9,11.3c0,2.6,0.5,2.4-5.7,2.5c-5.8,0.1-6.7,0.2-9.4,1.1c-6,1.9-9.1,5.5-9.1,10.9c0,7.3,4.6,11.3,12.8,11   c2.5-0.1,3.3-0.2,4.5-0.8c0.2-0.1,0.6-0.2,0.8-0.3c0.7-0.2,3.8-2.3,5-3.4c1.5-1.4,1.7-1.1,1.7,1.6c0,1.9,0,2.1,0.4,2.3   c0.4,0.2,2.2,0.3,3,0.1l0.4-0.1v-14.7c0-9.8-0.1-15-0.2-15.7c-1.3-5.7-3.7-8.1-9.5-9.4C124.1,179.4,118.8,179.5,117.3,179.8    M257,179.7c-5.8,1.1-10.4,5.2-12.4,10.8c-0.4,1.1-0.5,1.5-1.1,4.1c-0.3,1.5-0.4,9.4,0,10.8c0.1,0.6,0.3,1.5,0.5,2.2   c1.1,5.1,5.6,10.4,9.9,11.5c0.3,0.1,1.1,0.3,1.7,0.5c1.7,0.5,8,0.6,10.6,0.2c7-1.2,10.2-3.3,8.5-5.8c-0.4-0.6-0.8-0.6-2.4,0.1   c-1.2,0.5-3.4,1.2-5.7,1.8c-1.3,0.3-6.6,0.5-7.8,0.2c-7-1.4-10-5.3-10.6-13.5c-0.2-2.6-1.6-2.3,13.5-2.3c13.1,0,13.5,0,14.2-0.8   c0.9-1,0.5-7.6-0.5-10.1c-0.8-1.9-1.2-2.6-1.9-3.7C270.2,181,263.4,178.5,257,179.7 M83.9,183.7c4.7,1.3,7.8,5.8,7.8,11.3   c0,1.8,0.8,1.7-12,1.7c-12.7,0-11.7,0.1-11.6-1.6C68.8,186.9,76.2,181.6,83.9,183.7 M165.9,183.8c2.4,0.8,6.5,4.1,8.5,6.7l0.7,1   v8.3v8.3l-0.8,1c-6.6,8.3-15,9.8-19.6,3.5c-0.6-0.8-0.9-1.4-1.7-3.3c-1.6-3.8-1.9-12.4-0.5-17C154.5,185.2,159.9,181.8,165.9,183.8    M263.5,183.6c4.8,1.2,7.7,5,8.1,10.9c0.1,2.4,1.5,2.2-11.9,2.2c-12.6,0-11.8,0.1-11.6-1.7C249.1,186.7,255.7,181.8,263.5,183.6    M306.5,183.6c4.6,1.1,8.4,5.8,6.7,8.2c-0.4,0.5-1.1,1.8-1.7,2.8c-1.4,2.3-0.6,2.1-10.9,2.1c-9.6,0-9.6,0-9.6-1.1   C291,187.7,298.7,181.7,306.5,183.6 M308.1,200.6c0.3,0.2,0.3,0.3,0,1.3c-1.1,3-1.9,7.2-2.1,11.4c-0.2,3.2-0.1,3.1-2.1,3.1   c-5.5,0-9.7-2.8-11.6-7.6c-1.1-2.7-1.6-8.1-0.9-8.3C292.3,200.2,307.8,200.3,308.1,200.6 M130.3,201.1c0.3,0.3,0.3,0.9,0.3,4.7   l-0.1,4.4l-1,1c-3.9,4-7.8,5.7-11.9,5.2c-4.2-0.5-6.4-3.1-6.4-7.3c0-3.9,1.7-6.2,5.7-7.4C119.6,200.7,129.5,200.3,130.3,201.1    M304.6,234c-1.6,1.1-1.6,1.2-0.6,2.6c5.2,7.3,8.1,11.3,8.3,11.3c0.2,0,1.7-1,2.5-1.7c0.6-0.5,0.6-0.5-7.4-11.7   C306.2,232.7,306.3,232.8,304.6,234 M296,245c-4.2,3-8.1,5.6-8.5,6c-0.4,0.3-3.7,2.6-7.3,5.1c-6.7,4.6-7.8,5.4-10,7   c-0.7,0.5-4.1,2.9-7.6,5.3c-7.5,5.2-7.6,5.3-9,6.3c-0.6,0.4-1.1,0.9-1.1,1.1c0,0.4,3.5,5.4,3.8,5.4c0.1,0,1.5-0.9,3-2   c3.2-2.3,3.4-2.4,12.9-9c3.9-2.7,7.2-5,7.2-5c0.1-0.1,1-0.7,2-1.4c2.3-1.5,13-9.1,15.3-10.6c0.9-0.6,3.7-2.6,6.3-4.4   s4.8-3.4,4.8-3.5c0.1-0.3-3.5-5.5-3.8-5.5C303.8,239.6,300.3,242.1,296,245 M246.3,274.5c-0.7,0.5-1.4,1.1-1.4,1.2   c0,0.3,8.7,12.5,9,12.6c0.2,0.1,2.7-1.7,2.9-2c0.1-0.2-0.5-1.2-3.5-5.4c-1.2-1.7-2.9-4.1-3.8-5.3   C247.9,273.1,248,273.2,246.3,274.5"></path></g></svg>