<?xml version="1.0" encoding="UTF-8"?><svg xmlns:inkscape="http://www.inkscape.org/namespaces/inkscape" xmlns:sodipodi="http://sodipodi.sourceforge.net/DTD/sodipodi-0.dtd" xmlns="http://www.w3.org/2000/svg" xmlns:svg="http://www.w3.org/2000/svg" version="1.2" width="400" height="200.22148394241418" viewBox="0, 0, 400,200.22148394241418" baseProfile="tiny-ps"><title>leadseek.svg</title><defs id="defs177"></defs><g id="svgg"><path id="path0" d="M 0,100.15 C 0,166.784 0.067,200.3 0.2,200.3 0.334,200.3 0.401,166.784 0.401,100.15 0.401,33.517 0.334,0 0.2,0 0.067,0 0,33.517 0,100.15 M 203.377,40.2 c -1.523,0.131 -2.978,0.334 -3.233,0.45 -0.255,0.116 -0.67,0.211 -0.923,0.211 -0.559,0 -2.232,0.564 -3.79,1.277 -0.633,0.289 -1.191,0.526 -1.239,0.526 -0.049,0 -0.783,0.453 -1.631,1.007 -9.303,6.073 -10.292,19.707 -2.023,27.886 2.025,2.003 7.462,5.343 11.365,6.981 12.52,5.255 16.817,10.55 14.598,17.988 -2.888,9.681 -16.846,11.382 -29.557,3.602 -2.912,-1.783 -3.669,-1.174 -3.669,2.948 0,3.846 2.04,5.831 7.912,7.697 0.771,0.245 1.582,0.516 1.802,0.602 0.221,0.087 1.212,0.298 2.204,0.47 0.991,0.173 2.336,0.406 2.988,0.519 12.123,2.098 24.895,-4.676 27.423,-14.546 2.539,-9.908 -1.197,-17.969 -10.682,-23.05 -2.282,-1.223 -7.149,-3.661 -7.307,-3.661 -1.185,0 -8.559,-4.493 -10.382,-6.326 -5.673,-5.702 -3.104,-15.353 4.508,-16.938 5.608,-1.168 9.58,-0.448 16.103,2.918 4.14,2.137 4.489,1.958 4.489,-2.314 0.001,-2.642 -0.226,-3.429 -1.226,-4.271 -0.722,-0.608 -4.14,-2.313 -4.636,-2.313 -0.178,0 -0.371,-0.078 -0.429,-0.172 -0.102,-0.165 -1.383,-0.5 -4.274,-1.119 -2.316,-0.496 -5.39,-0.632 -8.391,-0.372 M 15.223,40.834 c -1.335,0.169 -1.963,0.493 -2.107,1.085 -0.362,1.486 0.012,67.559 0.386,68.177 0.943,1.558 -0.14,1.471 18.326,1.471 h 16.45 l 0.381,-0.626 c 0.772,-1.269 0.78,-5.368 0.013,-6.386 l -0.377,-0.499 -12.9,-0.1 c -10.528,-0.082 -12.961,-0.151 -13.231,-0.375 -0.305,-0.254 -0.331,-2.662 -0.331,-30.88 0,-16.833 -0.056,-30.751 -0.125,-30.929 -0.313,-0.818 -3.645,-1.299 -6.485,-0.938 m 308.964,12.382 c -0.908,0.151 -0.896,0.034 -0.899,8.31 -0.002,4.26 -0.061,7.896 -0.132,8.081 -0.071,0.184 -1.175,0.849 -2.453,1.476 -3.696,1.814 -7.142,4.053 -9.336,6.067 -2.117,1.943 -2.038,1.933 -3.079,0.416 -5.911,-8.617 -20.871,-8.028 -26.68,1.052 -1.308,2.045 -2.165,4.054 -2.761,6.475 -0.984,3.994 -0.657,13.436 0.56,16.159 1.778,3.98 2.338,4.872 4.162,6.624 1.257,1.209 4.172,3.008 5.351,3.303 0.338,0.085 1.11,0.3 1.716,0.479 0.667,0.198 2.247,0.372 4.006,0.443 3.498,0.141 3.516,0.149 3.797,1.619 4.228,22.095 26.517,36.888 47.48,31.512 18.3,-4.693 30.158,-19.242 30.594,-37.535 0.485,-20.366 -13.418,-36.485 -34.5,-40 -2.598,-0.434 -11.069,-0.037 -12.989,0.607 -1.359,0.456 -1.332,0.604 -1.332,-7.395 0,-5.789 -0.053,-7.223 -0.271,-7.404 -0.309,-0.257 -2.337,-0.438 -3.234,-0.289 m -156.609,0.479 -0.527,0.415 v 11.409 c 0,13.025 0.119,12.281 -1.709,10.668 -3.953,-3.49 -6.606,-4.658 -10.61,-4.673 -6.84,-0.024 -11.869,3.567 -14.334,10.236 -0.59,1.597 -0.703,2.025 -1.206,4.579 -0.576,2.928 -0.441,9.951 0.257,13.32 2.727,13.166 16.458,16.922 26.082,7.136 1.737,-1.767 1.92,-1.598 1.92,1.771 0,3.231 0.711,3.848 3.556,3.085 l 0.45,-0.12 V 82.712 53.904 l -0.445,-0.312 c -0.69,-0.483 -2.768,-0.421 -3.434,0.103 m 173.133,17.91 c 2.644,0.306 4.006,0.61 4.006,0.894 0,0.172 -2.501,2.735 -11.589,11.875 l -4.927,4.954 0.91,0.954 c 0.821,0.863 2.108,2.402 3.948,4.727 0.363,0.459 1.048,1.285 1.521,1.836 0.473,0.551 1.478,1.768 2.232,2.704 0.755,0.937 1.426,1.748 1.491,1.803 0.065,0.055 0.476,0.551 0.913,1.101 0.437,0.551 0.884,1.101 0.994,1.222 0.11,0.121 1.584,1.895 3.274,3.943 2.17,2.627 3.254,3.786 3.686,3.936 1.053,0.368 3.84,0.272 4.36,-0.149 0.717,-0.581 1.433,0.36 -10.997,-14.45 -5.655,-6.739 -6.232,-7.47 -6.232,-7.904 0,-0.52 1.03,-1.553 9.673,-9.703 6.247,-5.891 5.942,-5.697 7.668,-4.866 0.653,0.315 1.548,0.738 1.988,0.942 14.979,6.925 22.872,26.954 17.024,43.201 -9.535,26.491 -44.904,31.915 -61.74,9.467 -4.114,-5.486 -8.062,-15.922 -6.21,-16.418 3.182,-0.852 3.962,-1.117 5.403,-1.837 1.599,-0.799 2.056,-1.472 1.905,-2.809 -0.189,-1.675 -0.591,-1.781 -2.999,-0.786 -3.074,1.269 -4.757,1.667 -5.098,1.207 -0.741,-0.999 0.571,-9.025 2.136,-13.07 0.768,-1.984 0.866,-2.04 3.517,-2.04 3.773,0 4.278,-1.014 3.497,-7.024 -0.217,-1.673 -0.206,-1.83 0.173,-2.44 1.445,-2.321 9.979,-8.343 11.513,-8.125 l 0.434,0.062 0.1,18.261 c 0.055,10.043 0.175,18.336 0.267,18.428 0.244,0.243 3.681,0.204 3.93,-0.045 0.146,-0.145 0.212,-6.136 0.214,-19.17 10e-4,-10.428 0.053,-19.094 0.116,-19.258 0.203,-0.527 1.69,-0.879 6.389,-1.511 1.881,-0.252 3.795,-0.227 6.51,0.088 m -271.594,0.12 c -8.88,1.742 -13.922,9.104 -13.911,20.313 0.01,10.609 4.059,17.258 11.853,19.468 3.277,0.929 10.142,0.86 13.762,-0.138 4.694,-1.294 6.113,-2.209 6.107,-3.938 -0.007,-2.002 -0.508,-2.215 -2.855,-1.212 -9.231,3.943 -18.541,2.426 -21.875,-3.564 -1.645,-2.957 -2.846,-9.789 -1.791,-10.194 0.174,-0.067 6.155,-0.121 13.29,-0.121 h 12.974 l 0.68,-0.458 C 88.779,90.92 88.771,85.361 87.337,81.622 84.393,73.95 77.331,70.114 69.117,71.725 m 40.147,0.078 c -5.868,1.21 -9.514,3.373 -9.514,5.643 0,1.864 0.669,1.979 3.305,0.57 3.856,-2.061 6.124,-2.696 9.654,-2.7 7.066,-0.009 9.886,3.221 9.872,11.309 -0.005,2.603 0.484,2.387 -5.748,2.54 -5.801,0.142 -6.684,0.243 -9.392,1.073 -6.038,1.851 -9.118,5.528 -9.144,10.914 -0.034,7.298 4.618,11.271 12.842,10.964 2.475,-0.092 3.314,-0.231 4.535,-0.753 0.22,-0.094 0.602,-0.228 0.848,-0.296 0.675,-0.189 3.824,-2.325 4.955,-3.36 1.476,-1.352 1.708,-1.141 1.708,1.557 0,1.86 0.042,2.112 0.387,2.296 0.421,0.226 2.244,0.276 2.968,0.081 l 0.45,-0.12 V 96.825 c 0,-9.784 -0.072,-15.015 -0.215,-15.65 -1.295,-5.722 -3.656,-8.081 -9.452,-9.443 -1.245,-0.293 -6.52,-0.247 -8.059,0.071 M 249.017,71.72 c -5.795,1.142 -10.408,5.154 -12.424,10.804 -0.38,1.065 -0.502,1.531 -1.073,4.106 -0.341,1.537 -0.366,9.387 -0.035,10.816 0.128,0.551 0.346,1.542 0.485,2.203 1.067,5.089 5.642,10.415 9.899,11.527 0.33,0.086 1.096,0.306 1.702,0.489 1.717,0.517 8.033,0.649 10.564,0.22 7.039,-1.193 10.178,-3.336 8.542,-5.833 -0.417,-0.636 -0.818,-0.622 -2.447,0.089 -1.247,0.544 -3.397,1.223 -5.742,1.815 -1.338,0.337 -6.553,0.503 -7.812,0.248 -6.976,-1.412 -10.024,-5.289 -10.628,-13.52 -0.19,-2.582 -1.554,-2.345 13.506,-2.345 13.088,0 13.479,-0.023 14.208,-0.805 0.893,-0.959 0.532,-7.638 -0.547,-10.112 -0.843,-1.932 -1.174,-2.572 -1.916,-3.705 -3.111,-4.748 -9.911,-7.252 -16.282,-5.997 M 75.914,75.727 c 4.704,1.303 7.811,5.817 7.811,11.347 0.001,1.77 0.798,1.659 -11.98,1.659 -12.668,0 -11.749,0.13 -11.61,-1.646 0.637,-8.198 8.017,-13.511 15.779,-11.36 m 81.948,0.082 c 2.445,0.827 6.548,4.073 8.486,6.713 l 0.703,0.957 v 8.318 8.317 l -0.772,0.97 c -6.626,8.319 -14.997,9.805 -19.626,3.484 -0.604,-0.824 -0.93,-1.447 -1.737,-3.316 -1.643,-3.803 -1.894,-12.403 -0.499,-17.042 2.109,-7.012 7.533,-10.401 13.445,-8.401 m 97.614,-0.196 c 4.847,1.157 7.711,5.047 8.052,10.938 0.141,2.422 1.481,2.176 -11.886,2.179 -12.616,0.003 -11.781,0.124 -11.569,-1.668 0.986,-8.348 7.649,-13.301 15.403,-11.449 m 43.065,0 c 4.579,1.093 8.351,5.751 6.663,8.228 -0.37,0.543 -1.149,1.781 -1.733,2.752 -1.375,2.291 -0.611,2.14 -10.858,2.14 -9.605,0 -9.588,0.002 -9.588,-1.101 0,-7.932 7.688,-13.888 15.516,-12.019 m 1.572,16.976 c 0.318,0.234 0.315,0.315 -0.046,1.262 -1.137,2.983 -1.935,7.244 -2.138,11.407 -0.158,3.226 -0.073,3.1 -2.085,3.093 -5.461,-0.021 -9.747,-2.82 -11.614,-7.585 -1.068,-2.725 -1.621,-8.089 -0.855,-8.289 0.903,-0.236 16.406,-0.132 16.738,0.112 M 122.28,93.065 c 0.284,0.284 0.318,0.876 0.264,4.699 l -0.06,4.375 -1.002,1.033 c -3.866,3.987 -7.788,5.696 -11.892,5.18 -4.203,-0.527 -6.435,-3.052 -6.435,-7.279 0,-3.911 1.732,-6.185 5.676,-7.45 2.765,-0.887 12.707,-1.3 13.449,-0.558 m 174.324,32.886 c -1.561,1.091 -1.585,1.198 -0.6,2.582 5.218,7.333 8.115,11.277 8.283,11.277 0.21,0 1.689,-0.994 2.52,-1.694 0.609,-0.513 0.591,-0.541 -7.418,-11.671 -1.228,-1.706 -1.087,-1.681 -2.785,-0.494 m -8.572,11.069 c -4.241,2.967 -8.072,5.648 -8.513,5.958 -0.44,0.31 -3.73,2.592 -7.311,5.07 -6.681,4.626 -7.767,5.383 -10.015,6.983 -0.716,0.51 -4.141,2.899 -7.611,5.31 -7.526,5.228 -7.611,5.287 -9.014,6.281 -0.606,0.43 -1.091,0.915 -1.078,1.079 0.034,0.43 3.496,5.359 3.76,5.354 0.123,-0.003 1.485,-0.898 3.027,-1.991 3.218,-2.279 3.371,-2.386 12.909,-8.982 3.916,-2.708 7.166,-4.979 7.221,-5.045 0.055,-0.065 0.957,-0.709 2.003,-1.43 2.251,-1.549 13.048,-9.05 15.269,-10.606 0.851,-0.597 3.678,-2.57 6.282,-4.384 2.604,-1.814 4.774,-3.401 4.822,-3.527 0.115,-0.298 -3.494,-5.497 -3.803,-5.479 -0.13,0.008 -3.707,2.442 -7.948,5.409 m -49.725,29.432 c -0.743,0.548 -1.352,1.073 -1.352,1.167 0,0.328 8.706,12.501 9.023,12.616 0.187,0.068 2.703,-1.656 2.913,-1.997 0.142,-0.23 -0.458,-1.152 -3.506,-5.379 -1.231,-1.707 -2.924,-4.073 -3.761,-5.258 -1.768,-2.499 -1.577,-2.433 -3.317,-1.149" stroke="none" fill="#0b6e38" fill-rule="evenodd"></path></g></svg>